<svg viewBox="0 0 11 11" width="220px" height="220px" xmlns="http://www.w3.org/2000/svg"><path fill-rule="evenodd" d="M 2,1 5,1 5,2 6,2 6,1 9,1 9,5 10,5 10,7 11,7 11,10 0,10 0,7 1,7 1,5 2,5z" fill="#43BF4D"/><path fill-rule="evenodd" d="M 3,2 4,2 4,3 3,3z" fill="#ffffff"/><path fill-rule="evenodd" d="M 7,2 8,2 8,3 7,3z" fill="#ffffff"/><path fill-rule="evenodd" d="M 4,3 5,3 5,4 4,4z" fill="#ffffff"/><path fill-rule="evenodd" d="M 6,3 7,3 7,4 6,4z" fill="#ffffff"/><path fill-rule="evenodd" d="M 5,4 6,4 6,5 8,5 8,6 6,6 6,8 5,8 5,6 3,6 3,5 5,5z" fill="#ffffff"/><path fill-rule="evenodd" d="M 2,6 3,6 3,8 2,8z" fill="#ffffff"/><path fill-rule="evenodd" d="M 8,6 9,6 9,8 8,8z" fill="#ffffff"/><path fill-rule="evenodd" d="M 1,8 2,8 2,9 1,9z" fill="#ffffff"/><path fill-rule="evenodd" d="M 3,8 5,8 5,9 3,9z" fill="#ffffff"/><path fill-rule="evenodd" d="M 6,8 8,8 8,9 6,9z" fill="#ffffff"/><path fill-rule="evenodd" d="M 9,8 10,8 10,9 9,9z" fill="#ffffff"/></svg>